# xmcd
#
# Track frame offsets: 
#        150
#        11256
#        25033
#        39414
#        55191
#        66413
#        80374
#        97185
#        114080
#        132569
#        148238
#        166506
#
# Disc length: 2468 seconds
#
# Revision: 0
# Processed by: cddbd v1.5.2PL0 Copyright (c) Steve Scherf et al.
# Submitted via: ExactAudioCopy v1.1
#
DISCID=9609a20c
DTITLE=Jay Willie Blues Band - Johnny's Juke Joint
DYEAR=2015
DGENRE=Blues
TTITLE0=Wooly Bully
TTITLE1=You Got Me Dizzy
TTITLE2=One More Mile
TTITLE3=Upside Of The Ground
TTITLE4=Barefootin'
TTITLE5=Hold On To Watcha Got
TTITLE6=People Get Ready
TTITLE7=I Love Everybody
TTITLE8=I Got A Stomach Ache
TTITLE9=Nobody But You
TTITLE10=Succotash
TTITLE11=Me And The Devil
EXTD=
EXTT0=
EXTT1=
EXTT2=
EXTT3=
EXTT4=
EXTT5=
EXTT6=
EXTT7=
EXTT8=
EXTT9=
EXTT10=
EXTT11=
PLAYORDER=
